<svg width="126" height="126" viewBox="0 0 126 126" fill="none" xmlns="http://www.w3.org/2000/svg">
<g filter="url(#filter0_d_6295_2902)">
<path d="M51.3994 43.4347C54.5463 39.3048 58.8031 36.9868 63.2401 36.9868C67.6772 36.9868 71.9339 39.3048 75.0809 43.4347C76.6352 45.4744 77.8687 47.8998 78.7104 50.5712C79.5522 53.2427 79.9855 56.1076 79.9855 59.001C79.9855 61.8944 79.5522 64.7592 78.7104 67.4307C77.8687 70.1022 76.6352 72.5275 75.0809 74.5672C71.9339 78.6971 67.6772 81.0152 63.2401 81.0152C58.8031 81.0152 54.5463 78.6971 51.3994 74.5672C49.845 72.5275 48.6115 70.1022 47.7698 67.4307C46.928 64.7592 46.4947 61.8944 46.4947 59.001C46.4947 56.1076 46.928 53.2427 47.7698 50.5712C48.6115 47.8998 49.845 45.4744 51.3994 43.4347Z" stroke="#3B8AFF" stroke-width="2" stroke-linecap="round"/>
<path d="M84.3398 68.147C84.6833 68.5456 84.9513 69.0449 85.1222 69.605C85.3355 70.3006 85.3931 71.0624 85.2882 71.7999C85.1834 72.5375 84.9205 73.2198 84.5307 73.766C84.4733 73.8464 84.4299 73.9426 84.4037 74.0476C84.3775 74.1526 84.369 74.264 84.379 74.3738C84.389 74.4836 84.4171 74.5891 84.4614 74.683C84.5056 74.7768 84.565 74.8567 84.6352 74.917C85.7389 75.856 86.9342 76.5928 88.1882 77.107C88.2644 77.1383 88.3447 77.1482 88.424 77.1359C88.5033 77.1237 88.5797 77.0896 88.6484 77.0359C88.7171 76.9821 88.7765 76.91 88.8227 76.824C88.8689 76.7381 88.901 76.6403 88.9168 76.537C89.0551 75.6195 89.4373 74.7975 89.9944 74.2194C90.5515 73.6414 91.2468 73.3453 91.9547 73.3848C92.6627 73.4243 93.3366 73.7967 93.8548 74.4347C94.373 75.0727 94.7014 75.9343 94.7806 76.864C94.7894 76.9693 94.815 77.0709 94.8555 77.1624C94.8961 77.2538 94.9507 77.333 95.0159 77.3947C95.0811 77.4565 95.1554 77.4995 95.234 77.5209C95.3126 77.5423 95.3937 77.5416 95.472 77.519C96.6818 77.1681 97.8527 76.6146 98.9562 75.872C99.0277 75.824 99.0908 75.7567 99.1413 75.6744C99.1919 75.5921 99.2287 75.4967 99.2495 75.3944C99.2703 75.292 99.2746 75.1851 99.262 75.0804C99.2494 74.9758 99.2203 74.8758 99.1766 74.787C98.7922 74.0017 98.6329 73.061 98.7275 72.1345C98.8221 71.2079 99.1643 70.3564 99.6924 69.7335C100.22 69.1106 100.9 68.7573 101.608 68.7372C102.316 68.7171 103.006 69.0316 103.554 69.624C103.654 69.7322 103.78 69.792 103.909 69.7935C104.039 69.7949 104.165 69.738 104.267 69.632C105.096 68.0817 105.72 66.3573 106.114 64.532C106.11 64.4131 106.086 64.2969 106.043 64.1927C105.999 64.0885 105.938 63.9992 105.864 63.932C105.281 63.7735 104.724 63.4781 104.22 63.06C103.727 62.571 103.361 61.8916 103.173 61.1158C102.985 60.3401 102.985 59.5065 103.172 58.7304C103.359 57.9543 103.724 57.2742 104.217 56.7842C104.709 56.2943 105.305 56.0188 105.922 55.996C106.005 55.9929 106.087 55.9657 106.162 55.9163C106.236 55.8669 106.301 55.7965 106.353 55.7101C106.405 55.6237 106.441 55.5234 106.461 55.4163C106.48 55.3091 106.481 55.1977 106.463 55.09C106.194 53.4095 105.754 51.7846 105.155 50.259C105.117 50.1613 105.063 50.0759 104.996 50.009C104.93 49.942 104.854 49.8951 104.772 49.8715C104.691 49.848 104.606 49.8483 104.525 49.8726C104.443 49.8969 104.367 49.9445 104.301 50.012C103.821 50.5014 103.239 50.7854 102.634 50.8261C102.028 50.8667 101.427 50.6621 100.912 50.2395C100.397 49.8169 99.9917 49.1965 99.751 48.4615C99.5103 47.7266 99.4454 46.912 99.5651 46.127C99.7163 45.3435 100.009 44.6202 100.419 44.019C100.474 43.8551 100.484 43.6702 100.445 43.4979C100.407 43.3257 100.322 43.1774 100.208 43.08C99.0881 42.1231 97.8717 41.3791 96.5946 40.87C96.4573 40.8345 96.315 40.8669 96.1946 40.9609C96.0742 41.0549 95.9842 41.2041 95.9416 41.38C95.9341 41.411 95.9122 41.539 95.9107 41.546C95.7568 42.4499 95.3654 43.2527 94.806 43.812C94.2466 44.3713 93.5552 44.651 92.8545 44.6015C92.1538 44.552 91.489 44.1765 90.9779 43.5416C90.4669 42.9067 90.1427 42.0534 90.0627 41.133C90.0539 41.0277 90.0284 40.926 89.9878 40.8346C89.9473 40.7432 89.8926 40.664 89.8274 40.6022C89.7622 40.5405 89.6879 40.4975 89.6093 40.4761C89.5307 40.4547 89.4496 40.4553 89.3712 40.478C88.1615 40.8286 86.9906 41.3821 85.8872 42.125C85.8157 42.173 85.7525 42.2403 85.7019 42.3226C85.6514 42.4049 85.6146 42.5003 85.5938 42.6026C85.573 42.7049 85.5687 42.8119 85.5813 42.9166C85.5939 43.0212 85.623 43.1212 85.6668 43.21C85.9107 43.7114 86.0651 44.2796 86.1183 44.8714C86.1714 45.4632 86.122 46.0632 85.9737 46.6261C85.8253 47.189 85.582 47.7 85.262 48.1204C84.9421 48.5409 84.554 48.8597 84.127 49.053" stroke="#3B8AFF" stroke-width="2" stroke-linecap="round" stroke-linejoin="round"/>
<path d="M96.6753 57.931C96.8356 59.0413 96.7429 60.1895 96.4089 61.2302C96.075 62.271 95.5148 63.1577 94.7992 63.7781C94.0836 64.3985 93.2446 64.7248 92.3886 64.7158C91.5325 64.7067 90.6977 64.3627 89.9897 63.7272C89.2817 63.0917 88.7324 62.1933 88.4111 61.1456C88.0898 60.0979 88.011 58.9479 88.1848 57.8411C88.3585 56.7343 88.777 55.7205 89.3872 54.9276C89.9974 54.1348 90.7719 53.5987 91.6129 53.387C92.1713 53.2465 92.7452 53.2525 93.3018 53.4049C93.8584 53.5572 94.3868 53.8527 94.8569 54.2747C95.327 54.6966 95.7295 55.2367 96.0415 55.8641C96.3535 56.4914 96.5689 57.1937 96.6753 57.931Z" stroke="#3B8AFF" stroke-width="2" stroke-linecap="round" stroke-linejoin="round"/>
<path d="M42.3531 68.944C42.2124 69.0076 42.0755 69.0848 41.9434 69.175C41.5763 69.4272 41.2531 69.7777 40.9944 70.2041C40.7356 70.6304 40.5471 71.1233 40.4408 71.6513C40.3344 72.1793 40.3126 72.7308 40.3768 73.2705C40.4409 73.8103 40.5896 74.3264 40.8133 74.786C40.8571 74.8748 40.8862 74.9748 40.8988 75.0794C40.9114 75.1841 40.9072 75.2911 40.8864 75.3934C40.8656 75.4957 40.8287 75.5911 40.7782 75.6734C40.7276 75.7557 40.6645 75.823 40.5929 75.871C39.4895 76.6136 38.3186 77.1671 37.1089 77.518C37.0305 77.5408 36.9493 77.5416 36.8707 77.5203C36.7921 77.4989 36.7177 77.4559 36.6525 77.3942C36.5873 77.3324 36.5326 77.2532 36.4921 77.1616C36.4516 77.0701 36.4261 76.9684 36.4174 76.863C36.3376 75.9337 36.009 75.0727 35.4908 74.4352C34.9725 73.7976 34.2988 73.4256 33.5911 73.3861C32.8834 73.3467 32.1883 73.6424 31.6312 74.22C31.0741 74.7975 30.6917 75.6189 30.5528 76.536C30.5371 76.6393 30.505 76.7371 30.4588 76.823C30.4126 76.909 30.3532 76.9811 30.2845 77.0349C30.2158 77.0886 30.1394 77.1227 30.0601 77.1349C29.9808 77.1472 29.9004 77.1373 29.8242 77.106C28.5703 76.5915 27.3751 75.8548 26.2713 74.916C26.2011 74.8557 26.1418 74.7757 26.0976 74.6818C26.0534 74.5879 26.0254 74.4823 26.0155 74.3725C26.0056 74.2628 26.0141 74.1514 26.0403 74.0465C26.0666 73.9415 26.11 73.8454 26.1675 73.765C26.6805 73.0452 26.9688 72.0963 26.9746 71.108C26.9805 70.1196 26.7035 69.1648 26.1991 68.4345C25.6947 67.7042 25.0001 67.2523 24.2541 67.1692C23.5082 67.086 22.766 67.3777 22.176 67.986C22.1101 68.0537 22.0337 68.1014 21.9522 68.1258C21.8707 68.1502 21.7862 68.1506 21.7046 68.127C21.623 68.1034 21.5464 68.0565 21.48 67.9894C21.4137 67.9223 21.3594 67.8369 21.3209 67.739C20.7226 66.2134 20.2824 64.5885 20.0121 62.908C19.995 62.8002 19.996 62.6887 20.0151 62.5815C20.0343 62.4743 20.071 62.3739 20.1227 62.2875C20.1744 62.201 20.2399 62.1307 20.3145 62.0813C20.3891 62.032 20.471 62.0049 20.5544 62.002C21.1194 61.981 21.6682 61.748 22.1365 61.3303C22.6049 60.9126 22.9735 60.3274 23.1991 59.6432C23.4248 58.959 23.4982 58.2041 23.4107 57.4668C23.3233 56.7295 23.0787 56.0404 22.7054 55.48C22.1693 54.7322 21.4548 54.2506 20.6817 54.116C20.5896 54.055 20.5117 53.9623 20.4563 53.8477C20.4008 53.7332 20.3698 53.6009 20.3666 53.465C20.7612 51.6402 21.3857 49.9161 22.2139 48.365C22.316 48.2595 22.4422 48.2029 22.5718 48.2046C22.7014 48.2062 22.8268 48.266 22.9273 48.374C23.4753 48.9656 24.1652 49.2794 24.8728 49.259C25.5805 49.2385 26.2593 48.8852 26.7871 48.2625C27.3149 47.6398 27.657 46.7888 27.7516 45.8626C27.8463 44.9365 27.6875 43.9962 27.3036 43.211C27.2598 43.1222 27.2307 43.0222 27.2181 42.9176C27.2055 42.8129 27.2098 42.706 27.2306 42.6036C27.2514 42.5013 27.2882 42.4059 27.3388 42.3236C27.3893 42.2413 27.4524 42.174 27.524 42.126C28.6274 41.3832 29.7983 40.8297 31.008 40.479C31.0864 40.4562 31.1676 40.4554 31.2462 40.4768C31.3249 40.4981 31.3992 40.5411 31.4645 40.6029C31.5297 40.6647 31.5843 40.7439 31.6248 40.8354C31.6653 40.9269 31.6908 41.0286 31.6995 41.134C31.779 42.055 32.1031 42.9091 32.6142 43.5446C33.1254 44.1801 33.7905 44.556 34.4916 44.6055C35.1927 44.655 35.8844 44.3749 36.444 43.815C37.0035 43.2551 37.3947 42.4516 37.5482 41.547C37.5482 41.54 37.5717 41.412 37.5792 41.381C37.6218 41.2051 37.7118 41.0559 37.8321 40.9619C37.9525 40.8679 38.0949 40.8355 38.2321 40.871C39.5092 41.3803 40.7256 42.1243 41.8457 43.081C41.96 43.1784 42.0442 43.3267 42.0828 43.499C42.1215 43.6712 42.112 43.8561 42.0562 44.02C41.6468 44.6212 41.3539 45.3446 41.2026 46.128C41.0906 46.8016 41.1188 47.5027 41.2843 48.1568C41.4498 48.8109 41.7464 49.3936 42.1426 49.843" stroke="#3B8AFF" stroke-width="2" stroke-linecap="round" stroke-linejoin="round"/>
<path d="M38.3081 57.931C38.4684 59.0413 38.3757 60.1895 38.0417 61.2302C37.7078 62.271 37.1476 63.1577 36.432 63.7781C35.7163 64.3985 34.8775 64.7248 34.0214 64.7158C33.1653 64.7067 32.3305 64.3627 31.6225 63.7272C30.9145 63.0917 30.3652 62.1933 30.0439 61.1456C29.7226 60.0979 29.6439 58.9479 29.8176 57.8411C29.9913 56.7343 30.4098 55.7205 31.0199 54.9276C31.6301 54.1348 32.4047 53.5987 33.2456 53.387C33.804 53.2465 34.3779 53.2525 34.9345 53.4049C35.4911 53.5572 36.0196 53.8527 36.4897 54.2747C36.9597 54.6966 37.3623 55.2367 37.6743 55.8641C37.9863 56.4914 38.2017 57.1937 38.3081 57.931Z" stroke="#3B8AFF" stroke-width="2" stroke-linecap="round" stroke-linejoin="round"/>
<path d="M37.2285 32.614C40.3343 27.4342 44.2874 23.249 48.7917 20.372C53.2961 17.4949 58.235 16.0004 63.2388 16.0004C68.2425 16.0004 73.1815 17.4949 77.6858 20.372C82.1902 23.249 86.1432 27.4342 89.249 32.614" stroke="#3B8AFF" stroke-width="2" stroke-linecap="round" stroke-linejoin="round"/>
<path d="M38.1668 23.19L37.4321 32.615L44.2025 29.552" stroke="#3B8AFF" stroke-width="2" stroke-linecap="round" stroke-linejoin="round"/>
<path d="M37.2285 85.386C40.3343 90.5658 44.2874 94.7509 48.7917 97.628C53.2961 100.505 58.235 102 63.2388 102C68.2425 102 73.1815 100.505 77.6858 97.628C82.1902 94.7509 86.1432 90.5658 89.249 85.386" stroke="#3B8AFF" stroke-width="2" stroke-linecap="round" stroke-linejoin="round"/>
<path d="M88.287 94.824L89.0444 85.386L82.249 88.462" stroke="#3B8AFF" stroke-width="2" stroke-linecap="round" stroke-linejoin="round"/>
<path d="M62.0608 62.099L66.9703 73.521M56.834 62.293H60.8618C61.4945 62.3123 62.1236 62.1625 62.7113 61.8527C63.2991 61.5428 63.8333 61.0794 64.2819 60.4901C64.7306 59.9008 65.0844 59.1979 65.3221 58.4236C65.5598 57.6492 65.6765 56.8194 65.6652 55.984C65.7803 54.6369 65.5283 53.2797 64.9544 52.1555C64.3806 51.0314 63.5223 50.2137 62.5334 49.849M56.8362 55.984H69.6795M69.6795 49.849H56.8347" stroke="#3B8AFF" stroke-width="2" stroke-linecap="round" stroke-linejoin="round"/>
</g>
<defs>
<filter id="filter0_d_6295_2902" x="0.5" y="0.500427" width="125.476" height="124.999" filterUnits="userSpaceOnUse" color-interpolation-filters="sRGB">
<feFlood flood-opacity="0" result="BackgroundImageFix"/>
<feColorMatrix in="SourceAlpha" type="matrix" values="0 0 0 0 0 0 0 0 0 0 0 0 0 0 0 0 0 0 127 0" result="hardAlpha"/>
<feOffset dy="4"/>
<feGaussianBlur stdDeviation="9.25"/>
<feComposite in2="hardAlpha" operator="out"/>
<feColorMatrix type="matrix" values="0 0 0 0 0 0 0 0 0 0.4 0 0 0 0 1 0 0 0 1 0"/>
<feBlend mode="normal" in2="BackgroundImageFix" result="effect1_dropShadow_6295_2902"/>
<feBlend mode="normal" in="SourceGraphic" in2="effect1_dropShadow_6295_2902" result="shape"/>
</filter>
</defs>
</svg>
