<svg width="135" height="139" viewBox="0 0 135 139" fill="none" xmlns="http://www.w3.org/2000/svg">
<g filter="url(#filter0_d_6295_2931)">
<path d="M68.9668 94.948L69.0282 94.8866V94.2317C69.0235 94.4715 69.003 94.7109 68.9668 94.948Z" stroke="#3B8AFF" stroke-width="2" stroke-linejoin="round"/>
<path d="M69.0429 94.0851V77.8213C69.0402 77.1484 68.7713 76.5039 68.2951 76.0286C67.8188 75.5532 67.1739 75.2857 66.501 75.2843C65.8584 75.2849 65.24 75.5294 64.7706 75.9684C64.3013 76.4074 64.016 77.0082 63.9725 77.6494C63.9648 77.7064 63.9617 77.7639 63.9633 77.8213V86.472" stroke="#3B8AFF" stroke-width="2" stroke-linejoin="round"/>
<path d="M53.8209 86.333V79.6011C53.8325 79.0089 53.6438 78.4302 53.2853 77.9587C52.9269 77.4873 52.4197 77.1508 51.846 77.0037C51.4739 76.9178 51.0872 76.9169 50.7148 77.0013C50.3423 77.0856 49.9937 77.253 49.6949 77.4909C49.3962 77.7288 49.155 78.031 48.9894 78.3752C48.8237 78.7193 48.7379 79.0964 48.7383 79.4783V100.65C48.7383 100.753 48.7383 100.855 48.7444 100.957C48.7434 100.995 48.7455 101.033 48.7506 101.07V101.096C48.8278 102.488 49.2464 103.84 49.9693 105.031C50.5523 105.955 51.3631 106.713 52.3239 107.233C53.2846 107.753 54.3629 108.017 55.4551 107.999H62.3366C63.4283 108.015 64.5058 107.75 65.4661 107.231C66.4264 106.711 67.2373 105.954 67.8214 105.031L67.8429 104.997C67.8695 104.976 67.889 104.964 67.9023 104.95L78.9895 91.8869C79.1409 91.7628 79.2375 91.5842 79.2585 91.3895C79.2796 91.1949 79.2234 90.9997 79.1021 90.8461L78.7306 90.4675C77.2857 89.0347 74.6375 89.3141 72.8386 91.104L69.0524 94.8906L68.9931 94.9499" stroke="#3B8AFF" stroke-width="2" stroke-linejoin="round"/>
<path d="M64.0016 86.4922V75.5491C64.0016 74.8749 63.7338 74.2283 63.2571 73.7516C62.7805 73.2748 62.1339 73.007 61.4598 73.007C60.7857 73.007 60.1391 73.2748 59.6625 73.7516C59.1858 74.2283 58.918 74.8749 58.918 75.5491V86.4922" stroke="#3B8AFF" stroke-width="2" stroke-linejoin="round"/>
<path d="M58.9508 86.4916V77.4254C58.9508 76.7512 58.683 76.1046 58.2064 75.6279C57.7297 75.1511 57.0831 74.8833 56.409 74.8833C55.7349 74.8833 55.0884 75.1511 54.6117 75.6279C54.135 76.1046 53.8672 76.7512 53.8672 77.4254V86.4916" stroke="#3B8AFF" stroke-width="2" stroke-linejoin="round"/>
<path d="M48.8301 100.655V100.846C48.8299 100.924 48.8342 101.002 48.8431 101.08C48.8341 100.938 48.8301 100.797 48.8301 100.655Z" stroke="#3B8AFF" stroke-width="2" stroke-linejoin="round"/>
<path d="M69.0273 93.9756V94.2325C69.0295 94.1896 69.0295 94.1465 69.0273 94.1036C69.0294 94.061 69.0294 94.0183 69.0273 93.9756Z" stroke="#3B8AFF" stroke-width="2" stroke-linejoin="round"/>
<path d="M59.036 33.0642L58.9746 33.1256V33.7806C58.9793 33.5407 58.9998 33.3014 59.036 33.0642Z" stroke="#3B8AFF" stroke-width="2" stroke-linejoin="round"/>
<path d="M58.9609 33.9272V50.1909C58.9636 50.8638 59.2325 51.5083 59.7087 51.9836C60.185 52.459 60.8299 52.7265 61.5028 52.7279C62.1454 52.7273 62.7638 52.4828 63.2331 52.0438C63.7025 51.6048 63.9877 51.004 64.0313 50.3628C64.039 50.3058 64.0421 50.2483 64.0405 50.1909V41.5402" stroke="#3B8AFF" stroke-width="2" stroke-linejoin="round"/>
<path d="M74.1818 41.6793V48.4102C74.1697 49.0025 74.358 49.5816 74.7163 50.0535C75.0746 50.5253 75.5819 50.8623 76.1557 51.0096C76.5279 51.0957 76.9147 51.0967 77.2872 51.0124C77.6598 50.9282 78.0086 50.7608 78.3074 50.5229C78.6063 50.285 78.8476 49.9827 79.0133 49.6385C79.179 49.2942 79.2649 48.917 79.2644 48.535V27.3559C79.2644 27.2536 79.2644 27.1513 79.2583 27.0489C79.2593 27.0113 79.2573 26.9736 79.2522 26.9363V26.9067C79.1751 25.5137 78.7562 24.1612 78.0324 22.9687C77.4494 22.0448 76.6386 21.2866 75.6778 20.7668C74.7171 20.247 73.6388 19.9832 72.5466 20.0008H65.665C64.5733 19.9851 63.4959 20.2497 62.5356 20.7693C61.5753 21.2889 60.7644 22.0461 60.1803 22.9687L60.1588 23.0035C60.1322 23.0239 60.1127 23.0362 60.0994 23.0495L49.0132 36.1243C48.8621 36.2486 48.7656 36.4272 48.7446 36.6218C48.7235 36.8163 48.7796 37.0114 48.9006 37.1651L49.2721 37.5428C50.717 38.9817 53.3652 38.6961 55.1641 36.9072L58.9503 33.1207L59.0096 33.0613" stroke="#3B8AFF" stroke-width="2" stroke-linejoin="round"/>
<path d="M64 41.5201V52.4632C64 53.1374 64.2678 53.784 64.7445 54.2607C65.2212 54.7374 65.8677 55.0053 66.5418 55.0053C67.216 55.0053 67.8625 54.7374 68.3392 54.2607C68.8159 53.784 69.0837 53.1374 69.0837 52.4632V41.5201" stroke="#3B8AFF" stroke-width="2" stroke-linejoin="round"/>
<path d="M69.0508 41.5236V50.5909C69.0508 51.2651 69.3186 51.9117 69.7953 52.3884C70.2719 52.8651 70.9185 53.133 71.5926 53.133C72.2667 53.133 72.9133 52.8651 73.39 52.3884C73.8666 51.9117 74.1344 51.2651 74.1344 50.5909V41.5236" stroke="#3B8AFF" stroke-width="2" stroke-linejoin="round"/>
<path d="M79.1761 27.357V27.1666C79.176 27.0883 79.1713 27.01 79.1621 26.9323C79.1711 27.0735 79.1761 27.2147 79.1761 27.357Z" stroke="#3B8AFF" stroke-width="2" stroke-linejoin="round"/>
<path d="M58.9749 34.0362V33.7804C58.9693 33.8656 58.9693 33.951 58.9749 34.0362Z" stroke="#3B8AFF" stroke-width="2" stroke-linejoin="round"/>
<path d="M33.0625 68.9733L33.1239 69.0347H33.7788C33.5389 69.03 33.2997 69.0095 33.0625 68.9733Z" stroke="#3B8AFF" stroke-width="2" stroke-linejoin="round"/>
<path d="M33.9258 69.048H50.1877C50.8606 69.0453 51.505 68.7765 51.9803 68.3002C52.4556 67.8239 52.7231 67.1788 52.7245 66.5059C52.7239 65.8633 52.4794 65.2448 52.0404 64.7754C51.6015 64.306 51.0008 64.0207 50.3597 63.9771C50.3027 63.9694 50.2452 63.9664 50.1877 63.9679H41.538" stroke="#3B8AFF" stroke-width="2" stroke-linejoin="round"/>
<path d="M41.678 53.8237H48.4081C49.0004 53.8356 49.5793 53.6469 50.0509 53.2884C50.5225 52.9299 50.8591 52.4225 51.0062 51.8486C51.0922 51.4765 51.093 51.0897 51.0087 50.7172C50.9243 50.3447 50.757 49.9961 50.5191 49.6973C50.2813 49.3985 49.979 49.1573 49.6349 48.9916C49.2908 48.826 48.9138 48.7401 48.5319 48.7405H27.3562C27.2538 48.7405 27.1515 48.7405 27.0492 48.7467C27.0115 48.7457 26.9739 48.7477 26.9366 48.7528H26.9069C25.5138 48.8297 24.1611 49.2487 22.9683 49.9727C22.0446 50.5557 21.2864 51.3667 20.7667 52.3275C20.247 53.2884 19.9832 54.3668 20.0008 55.4591V62.3414C19.9851 63.4332 20.2497 64.5108 20.7692 65.4712C21.2888 66.4316 22.0459 67.2426 22.9683 67.8268L23.0031 67.8483C23.0236 67.8749 23.0359 67.8943 23.0492 67.9076L36.1236 78.995C36.2479 79.1462 36.4264 79.2427 36.621 79.2637C36.8155 79.2848 37.0106 79.2287 37.1643 79.1076L37.5429 78.7361C38.9755 77.2911 38.6961 74.6426 36.9064 72.8434L33.1203 69.0569L33.0609 68.9975" stroke="#3B8AFF" stroke-width="2" stroke-linejoin="round"/>
<path d="M41.5176 64.0065H52.4595C53.1336 64.0065 53.7802 63.7387 54.2569 63.2619C54.7335 62.7852 55.0013 62.1386 55.0013 61.4644C55.0013 60.7902 67.4767 64.4832 67 64.0065C66.5233 63.5298 53.1336 58.9223 52.4595 58.9223H41.5176" stroke="#3B8AFF" stroke-width="2" stroke-linejoin="round"/>
<path d="M41.5215 58.9559H50.5877C51.2619 58.9559 51.9084 58.6881 52.3851 58.2113C52.8618 57.7346 53.1296 57.088 53.1296 56.4138C53.1296 55.7396 52.8618 55.093 52.3851 54.6163C51.9084 54.1395 51.2619 53.8717 50.5877 53.8717H41.5215" stroke="#3B8AFF" stroke-width="2" stroke-linejoin="round"/>
<path d="M27.3563 48.8337H27.166C27.0877 48.8334 27.0094 48.8378 26.9316 48.8467C27.0729 48.8377 27.2141 48.8337 27.3563 48.8337Z" stroke="#3B8AFF" stroke-width="2" stroke-linejoin="round"/>
<path d="M34.0342 69.0324H33.7773C33.8629 69.038 33.9487 69.038 34.0342 69.0324Z" stroke="#3B8AFF" stroke-width="2" stroke-linejoin="round"/>
<path d="M94.9399 59.041L94.8785 58.9796H94.2246C94.4641 58.9844 94.7031 59.0049 94.9399 59.041Z" stroke="#3B8AFF" stroke-width="2" stroke-linejoin="round"/>
<path d="M94.078 58.9653H77.816C77.1432 58.968 76.4987 59.2368 76.0235 59.7131C75.5482 60.1894 75.2806 60.8345 75.2793 61.5074C75.2799 62.1501 75.5244 62.7686 75.9633 63.2379C76.4023 63.7073 77.003 63.9926 77.6441 64.0362C77.7011 64.0439 77.7586 64.047 77.816 64.0454H86.4658" stroke="#3B8AFF" stroke-width="2" stroke-linejoin="round"/>
<path d="M86.3247 74.1867H79.5946C79.0033 74.1762 78.4258 74.3655 77.9555 74.7239C77.4851 75.0823 77.1494 75.5889 77.0026 76.1618C76.9166 76.5339 76.9158 76.9207 77.0001 77.2932C77.0845 77.6657 77.2518 78.0143 77.4897 78.3131C77.7275 78.6119 78.0298 78.8531 78.3739 79.0188C78.718 79.1844 79.095 79.2703 79.4769 79.2698H100.651C100.753 79.2698 100.855 79.2699 100.958 79.2637C100.995 79.2647 101.033 79.2627 101.07 79.2576H101.097C102.488 79.1803 103.84 78.7617 105.031 78.0387C105.955 77.4557 106.713 76.6447 107.233 75.6839C107.753 74.723 108.016 73.6446 107.999 72.5523V65.669C108.014 64.5772 107.75 63.4996 107.23 62.5392C106.711 61.5788 105.954 60.7678 105.031 60.1836L104.996 60.1621C104.976 60.1355 104.964 60.1161 104.95 60.1028L91.879 49.0153C91.7548 48.8642 91.5762 48.7677 91.3817 48.7467C91.1871 48.7256 90.9921 48.7817 90.8384 48.9028L90.4597 49.2743C89.0272 50.7193 89.3065 53.3678 91.0962 55.1669L94.8824 58.9535L94.9417 59.0129" stroke="#3B8AFF" stroke-width="2" stroke-linejoin="round"/>
<path d="M86.4838 64.0051H75.5418C74.8677 64.0051 74.2212 64.273 73.7445 64.7497C73.2678 65.2264 73 65.873 73 66.5472C73 67.2214 73.2678 67.868 73.7445 68.3448C74.2212 68.8215 74.8677 69.0893 75.5418 69.0893H86.4838" stroke="#3B8AFF" stroke-width="2" stroke-linejoin="round"/>
<path d="M86.484 69.0575H77.4188C76.7446 69.0575 76.0981 69.3253 75.6214 69.8021C75.1448 70.2788 74.877 70.9254 74.877 71.5996C74.877 72.2738 75.1448 72.9204 75.6214 73.3971C76.0981 73.8739 76.7446 74.1417 77.4188 74.1417H86.484" stroke="#3B8AFF" stroke-width="2" stroke-linejoin="round"/>
<path d="M100.648 79.1806H100.839C100.917 79.1809 100.995 79.1765 101.073 79.1676C100.931 79.1766 100.79 79.1806 100.648 79.1806Z" stroke="#3B8AFF" stroke-width="2" stroke-linejoin="round"/>
<path d="M93.9668 58.9784H94.2226C94.1374 58.9728 94.052 58.9728 93.9668 58.9784Z" stroke="#3B8AFF" stroke-width="2" stroke-linejoin="round"/>
</g>
<defs>
<filter id="filter0_d_6295_2931" x="-6.7" y="-2.7" width="141.4" height="141.4" filterUnits="userSpaceOnUse" color-interpolation-filters="sRGB">
<feFlood flood-opacity="0" result="BackgroundImageFix"/>
<feColorMatrix in="SourceAlpha" type="matrix" values="0 0 0 0 0 0 0 0 0 0 0 0 0 0 0 0 0 0 127 0" result="hardAlpha"/>
<feOffset dy="4"/>
<feGaussianBlur stdDeviation="12.85"/>
<feComposite in2="hardAlpha" operator="out"/>
<feColorMatrix type="matrix" values="0 0 0 0 0.232459 0 0 0 0 0.539476 0 0 0 0 1 0 0 0 1 0"/>
<feBlend mode="normal" in2="BackgroundImageFix" result="effect1_dropShadow_6295_2931"/>
<feBlend mode="normal" in="SourceGraphic" in2="effect1_dropShadow_6295_2931" result="shape"/>
</filter>
</defs>
</svg>
