<svg width="88" height="88" viewBox="0 0 88 88" fill="none" xmlns="http://www.w3.org/2000/svg">
<g clip-path="url(#clip0_6295_2916)">
<mask id="mask0_6295_2916" style="mask-type:luminance" maskUnits="userSpaceOnUse" x="0" y="0" width="88" height="88">
<path d="M88 0H0V88H88V0Z" fill="white"/>
</mask>
<g mask="url(#mask0_6295_2916)">
<g filter="url(#filter0_d_6295_2916)">
<path d="M66.4894 88V79.8825C66.5105 79.2953 66.7286 78.7376 67.1015 78.3174C67.4744 77.8972 67.9756 77.6443 68.508 77.6078L75.568 76.8107C81.8969 76.0944 77.3015 69.3409 80.4543 66.0747C82.3122 64.7127 79.9508 62.6406 81.5765 61.38C83.047 60.279 82.7432 58.7195 82.0772 57.2593C81.1909 52.9985 91.924 55.6999 84.7507 46.682C82.8723 43.253 78.5695 40.2416 79.5718 35.9777C81.2318 28.6767 79.3228 21.2673 75.1909 15.225C71.0236 9.12846 64.6241 4.84307 57.4146 2.79042C53.0326 1.5378 48.5275 0.882789 44.0006 0.840093C39.4721 0.88234 34.9654 1.53736 30.582 2.79042C23.3771 4.84307 16.9775 9.12846 12.8084 15.225C8.67648 21.2673 6.77029 28.6767 8.42753 35.9777C9.42986 40.2416 5.12884 43.253 3.24865 46.682C-3.92653 55.6999 6.80837 52.9985 5.92216 57.2593C5.2561 58.7206 4.95141 60.279 6.42286 61.38C8.04852 62.6417 5.68713 64.7127 7.54503 66.0747C10.6969 69.3491 6.10144 76.0965 12.4304 76.8107L19.4903 77.6078C20.0228 77.6443 20.524 77.8972 20.8969 78.3174C21.2698 78.7376 21.4879 79.2953 21.5089 79.8825V88" stroke="#3B8AFF" stroke-width="2" stroke-miterlimit="10"/>
<path d="M69.4406 30.0765C69.4723 22.3854 66.8024 14.9788 61.9895 9.4067C59.6799 6.70319 56.8925 4.54887 53.7988 3.07631C50.7051 1.60375 47.3706 0.844102 44.0004 0.844102C40.6303 0.844102 37.2958 1.60375 34.2021 3.07631C31.1084 4.54887 28.321 6.70319 26.0114 9.4067C21.2255 14.999 18.5601 22.3941 18.5601 30.0795C18.5601 37.7649 21.2255 45.16 26.0114 50.7524L26.0634 50.8117C29.7765 55.0289 31.8609 60.6675 31.8786 66.5422V68.1631C31.8365 70.4037 32.6038 72.5712 34.0117 74.189C35.4197 75.8069 37.3532 76.7428 39.3873 76.7912H48.6145C50.6486 76.7428 52.5821 75.8069 53.9901 74.189C55.398 72.5712 56.1653 70.4037 56.1232 68.1631V66.5392C56.1409 60.6644 58.2253 55.0259 61.9384 50.8087L61.9904 50.7483C66.8035 45.1756 69.4732 37.7681 69.4406 30.0765Z" stroke="#3B8AFF" stroke-width="2" stroke-miterlimit="10"/>
<path d="M31.8462 65.2858H56.1539" stroke="#3B8AFF" stroke-width="2" stroke-miterlimit="10"/>
<path d="M32.3062 71.0385H55.6933" stroke="#3B8AFF" stroke-width="2" stroke-miterlimit="10"/>
<path d="M30.853 59.534H57.1468" stroke="#3B8AFF" stroke-width="2" stroke-miterlimit="10"/>
<path d="M40.2497 46.2624V28.9254C40.1131 25.0636 39.0253 23.3548 36.9826 21.9775C36.0289 21.4087 34.9497 21.1456 33.8672 21.218C32.7847 21.2903 31.7423 21.6952 30.858 22.3868C28.9175 24.1693 28.9444 28.1416 31.9681 30.9637C33.6756 32.7114 35.7818 33.9157 38.062 34.4479C41.9986 35.0971 46.001 35.0971 49.9376 34.4479C51.3317 34.1094 52.6683 33.5299 53.8977 32.7309C54.6657 32.228 55.3821 31.6352 56.0343 30.9627C59.058 28.1406 59.085 24.1683 57.1444 22.3858C56.2602 21.6942 55.2177 21.2893 54.1353 21.2169C53.0528 21.1446 51.9735 21.4077 51.0199 21.9765C48.9762 23.3538 47.8893 25.0626 47.7528 28.9244V59.533" stroke="#3B8AFF" stroke-width="2" stroke-miterlimit="10"/>
<path d="M40.2505 59.5351V47.9058" stroke="#3B8AFF" stroke-width="2" stroke-miterlimit="10"/>
<path d="M49.5399 76.7247C49.5308 77.6921 49.1767 78.6168 48.5539 79.299C47.9311 79.9811 47.0897 80.3661 46.2114 80.3706H41.7859C40.9077 80.3661 40.0663 79.9811 39.4435 79.299C38.8207 78.6168 38.4665 77.6921 38.4575 76.7247" stroke="#3B8AFF" stroke-width="2" stroke-miterlimit="10"/>
</g>
</g>
</g>
<defs>
<filter id="filter0_d_6295_2916" x="-4.23633" y="-0.159951" width="96.4712" height="96.16" filterUnits="userSpaceOnUse" color-interpolation-filters="sRGB">
<feFlood flood-opacity="0" result="BackgroundImageFix"/>
<feColorMatrix in="SourceAlpha" type="matrix" values="0 0 0 0 0 0 0 0 0 0 0 0 0 0 0 0 0 0 127 0" result="hardAlpha"/>
<feOffset dy="4"/>
<feGaussianBlur stdDeviation="2"/>
<feComposite in2="hardAlpha" operator="out"/>
<feColorMatrix type="matrix" values="0 0 0 0 0 0 0 0 0 0.4 0 0 0 0 1 0 0 0 1 0"/>
<feBlend mode="normal" in2="BackgroundImageFix" result="effect1_dropShadow_6295_2916"/>
<feBlend mode="normal" in="SourceGraphic" in2="effect1_dropShadow_6295_2916" result="shape"/>
</filter>
<clipPath id="clip0_6295_2916">
<rect width="88" height="88" fill="white"/>
</clipPath>
</defs>
</svg>
